<svg width="1200" height="750" viewBox="0 0 1200 750" fill="none" xmlns="http://www.w3.org/2000/svg">
  <defs>
    <linearGradient id="bg" x1="0" y1="0" x2="1200" y2="750" gradientUnits="userSpaceOnUse">
      <stop stop-color="#0F172A"/>
      <stop offset="1" stop-color="#1E3A8A"/>
    </linearGradient>
    <linearGradient id="curve" x1="180" y1="130" x2="1020" y2="620" gradientUnits="userSpaceOnUse">
      <stop stop-color="#60A5FA"/>
      <stop offset="1" stop-color="#22D3EE"/>
    </linearGradient>
  </defs>
  <rect width="1200" height="750" rx="28" fill="url(#bg)"/>
  <rect x="90" y="90" width="1020" height="570" rx="20" fill="#0B122D" stroke="#334155" stroke-width="2"/>
  <path d="M160 560 C290 560 300 170 460 170 C620 170 610 560 760 560 C920 560 920 250 1040 250" stroke="url(#curve)" stroke-width="8" stroke-linecap="round"/>
  <path d="M160 560 L160 620 L1040 620" stroke="#64748B" stroke-width="3"/>
  <circle cx="460" cy="170" r="9" fill="#93C5FD"/>
  <circle cx="760" cy="560" r="9" fill="#67E8F9"/>
  <circle cx="1040" cy="250" r="9" fill="#BFDBFE"/>
  <text x="140" y="170" fill="#E2E8F0" font-family="Inter, Arial, sans-serif" font-size="56" font-weight="700">GaussianFoundry</text>
  <text x="140" y="225" fill="#94A3B8" font-family="Inter, Arial, sans-serif" font-size="28">Data modeling, uncertainty and reliable experimentation</text>
  <g opacity="0.85">
    <rect x="870" y="130" width="190" height="84" rx="14" fill="#1D4ED8"/>
    <text x="898" y="182" fill="#DBEAFE" font-family="Inter, Arial, sans-serif" font-size="28" font-weight="600">GPR</text>
  </g>
</svg>
