<svg width="1200" height="750" viewBox="0 0 1200 750" fill="none" xmlns="http://www.w3.org/2000/svg">
  <defs>
    <linearGradient id="bg3" x1="0" y1="0" x2="1200" y2="750" gradientUnits="userSpaceOnUse">
      <stop stop-color="#052E2B"/>
      <stop offset="1" stop-color="#14532D"/>
    </linearGradient>
  </defs>
  <rect width="1200" height="750" rx="28" fill="url(#bg3)"/>
  <text x="120" y="150" fill="#D1FAE5" font-family="Inter, Arial, sans-serif" font-size="56" font-weight="700">News on WhatsApp</text>
  <text x="120" y="205" fill="#86EFAC" font-family="Inter, Arial, sans-serif" font-size="28">Python automation for personalized daily updates</text>
  <rect x="120" y="280" width="360" height="300" rx="24" fill="#0F766E" stroke="#99F6E4" stroke-width="2"/>
  <text x="170" y="350" fill="#CCFBF1" font-family="Inter, Arial, sans-serif" font-size="30" font-weight="600">BBC API</text>
  <line x1="170" y1="390" x2="430" y2="390" stroke="#5EEAD4" stroke-width="8" stroke-linecap="round"/>
  <line x1="170" y1="430" x2="390" y2="430" stroke="#5EEAD4" stroke-width="8" stroke-linecap="round"/>
  <line x1="170" y1="470" x2="410" y2="470" stroke="#5EEAD4" stroke-width="8" stroke-linecap="round"/>
  <rect x="720" y="245" width="300" height="390" rx="34" fill="#166534" stroke="#86EFAC" stroke-width="3"/>
  <rect x="758" y="320" width="224" height="68" rx="14" fill="#22C55E"/>
  <text x="790" y="363" fill="#ECFDF5" font-family="Inter, Arial, sans-serif" font-size="30" font-weight="600">Top News</text>
  <rect x="758" y="410" width="190" height="58" rx="14" fill="#4ADE80"/>
  <text x="786" y="447" fill="#14532D" font-family="Inter, Arial, sans-serif" font-size="24" font-weight="600">Delivered</text>
  <path d="M490 430 C590 430 620 430 720 430" stroke="#A7F3D0" stroke-width="10" stroke-linecap="round"/>
  <polygon points="704,410 748,430 704,450" fill="#A7F3D0"/>
</svg>
